# xmcd
#
# Track frame offsets: 
#        150
#        16703
#        34337
#        51105
#        74505
#        100551
#        119454
#        139227
#        161621
#        181551
#        201097
#        222285
#        239495
#        256153
#        266987
#
# Disc length: 4051 seconds
#
# Revision: 0
# Processed by: cddbd v1.5.2PL0 Copyright (c) Steve Scherf et al.
# Submitted via: ExactAudioCopy v1.0b4
#
DISCID=d50fd10f
DTITLE=Leadfoot Rivet - Southern Echoes
DYEAR=2015
DGENRE=Blues
TTITLE0=The Bullfrog
TTITLE1=Shed My Old Skin
TTITLE2=Hangover In Hanover
TTITLE3=Highly Educated Fool
TTITLE4=He Ain't Heavy (He is My Brother)
TTITLE5=Ghost Train
TTITLE6=Slow Motion
TTITLE7=Livin' With Me Sure Is Funny
TTITLE8=He is A Loner
TTITLE9=Somewhere South Of Macon
TTITLE10=Damned Tourists!
TTITLE11=Miss Paranoia
TTITLE12=Dinosaur
TTITLE13=Why Lie ? Need Beer!
TTITLE14=The Game Of Love
EXTD=
EXTT0=
EXTT1=
EXTT2=
EXTT3=
EXTT4=
EXTT5=
EXTT6=
EXTT7=
EXTT8=
EXTT9=
EXTT10=
EXTT11=
EXTT12=
EXTT13=
EXTT14=
PLAYORDER=
